<svg width="31" height="33" viewBox="0 0 31 33" fill="none" xmlns="http://www.w3.org/2000/svg">
<path d="M0.602874 0.507019C0.220999 0.89962 0 1.51086 0 2.30245V30.5378C0 31.3294 0.220999 31.9407 0.602874 32.3333L0.697124 32.4194L16.8074 16.6037V16.2302L0.697124 0.414456L0.602874 0.507019Z" fill="url(#paint0_linear_695_781)"/>
<path d="M22.1708 21.8779L16.8066 16.6033V16.2299L22.1773 10.9553L22.2975 11.0239L28.6578 14.5781C30.4729 15.5867 30.4729 17.2465 28.6578 18.2615L22.2975 21.8093L22.1708 21.8779V21.8779Z" fill="url(#paint1_linear_695_781)"/>
<path d="M22.2979 21.8097L16.807 16.417L0.602539 32.3333C1.20541 32.9558 2.18854 33.0308 3.30654 32.4084L22.2979 21.8097" fill="url(#paint2_linear_695_781)"/>
<path d="M22.2979 11.0243L3.30654 0.425679C2.18854 -0.190354 1.20541 -0.115347 0.602539 0.50707L16.807 16.417L22.2979 11.0243Z" fill="url(#paint3_linear_695_781)"/>
<defs>
<linearGradient id="paint0_linear_695_781" x1="15.377" y1="30.8319" x2="-6.0465" y2="9.0183" gradientUnits="userSpaceOnUse">
<stop stop-color="#00A0FF"/>
<stop offset="0.0066" stop-color="#00A1FF"/>
<stop offset="0.2601" stop-color="#00BEFF"/>
<stop offset="0.5122" stop-color="#00D2FF"/>
<stop offset="0.7604" stop-color="#00DFFF"/>
<stop offset="1" stop-color="#00E3FF"/>
</linearGradient>
<linearGradient id="paint1_linear_695_781" x1="31.0214" y1="16.4148" x2="-0.434606" y2="16.4148" gradientUnits="userSpaceOnUse">
<stop stop-color="#FFE000"/>
<stop offset="0.4087" stop-color="#FFBD00"/>
<stop offset="0.7754" stop-color="#FFA500"/>
<stop offset="1" stop-color="#FF9C00"/>
</linearGradient>
<linearGradient id="paint2_linear_695_781" x1="19.3121" y1="13.4855" x2="-9.73983" y2="-16.0955" gradientUnits="userSpaceOnUse">
<stop stop-color="#FF3A44"/>
<stop offset="1" stop-color="#C31162"/>
</linearGradient>
<linearGradient id="paint3_linear_695_781" x1="-3.47647" y1="41.7271" x2="9.49654" y2="28.518" gradientUnits="userSpaceOnUse">
<stop stop-color="#32A071"/>
<stop offset="0.0685" stop-color="#2DA771"/>
<stop offset="0.4762" stop-color="#15CF74"/>
<stop offset="0.8009" stop-color="#06E775"/>
<stop offset="1" stop-color="#00F076"/>
</linearGradient>
</defs>
</svg>
